HIERARCHY
ROOT Torso
{
    OFFSET 0 0 0
    CHANNELS 6 Xposition Yposition Zposition Zrotation Yrotation Xrotation
    JOINT LHip1 
    {   
        OFFSET 0.01 -0.06 0
        CHANNELS 3 Zrotation Yrotation Xrotation
        JOINT LHip2
        {
            OFFSET 0 -0.055 -0.055
            CHANNELS 3 Zrotation Yrotation Xrotation
            JOINT LHip3
            {
                OFFSET -0.01 0 0
                CHANNELS 3 Zrotation Yrotation Xrotation
                JOINT LThigh
                {
                    OFFSET 0 0 0.01
                    CHANNELS 3 Zrotation Yrotation Xrotation
                    JOINT LLeg
                    {
                        OFFSET -0.014 -0.120 -0.01
                        CHANNELS 3 Zrotation Yrotation Xrotation
                        JOINT LFoot
                        {
                            OFFSET 0.01 -0.1 0
                            CHANNELS 3 Zrotation Yrotation Xrotation
                            End Site
                            {
                                OFFSET -0.090 -0.035 0
                            }
                        }
                    }
                }
            }
        }
    }
    JOINT RHip1 
    {   
        OFFSET 0.01 -0.06 0
        CHANNELS 3 Zrotation Yrotation Xrotation
        JOINT RHip2
        {
            OFFSET 0 -0.055 0.055
            CHANNELS 3 Zrotation Yrotation Xrotation
            JOINT RHip3
            {
                OFFSET -0.01 0 0
                CHANNELS 3 Zrotation Yrotation Xrotation
                JOINT RThigh
                {
                    OFFSET 0 0 0.01
                    CHANNELS 3 Zrotation Yrotation Xrotation
                    JOINT RLeg
                    {
                        OFFSET -0.014 -0.120 -0.01
                        CHANNELS 3 Zrotation Yrotation Xrotation
                        JOINT RFoot
                        {
                            OFFSET 0.01 -0.1 0
                            CHANNELS 3 Zrotation Yrotation Xrotation
                            End Site
                            {
                                OFFSET -0.090 -0.035 0
                            }
                        }
                    }
                }
            }
        }
    }
    JOINT Neck
    {
        OFFSET 0 0.04 0
        CHANNELS 3 Zrotation Yrotation Xrotation
        JOINT Head
        {
            OFFSET 0 0.1 0
            CHANNELS 3 Zrotation Yrotation Xrotation
            End Site 
            {
                OFFSET 0 0.07 0
            }
        }
    }
    JOINT LUpperarm
    {
        OFFSET 0 0.075 -0.098
        CHANNELS 3 Zrotation Yrotation Xrotation
        JOINT LLowerarm
        {
            OFFSET -0.09 0.009 0
            CHANNELS 3 Zrotation Yrotation Xrotation
            End Site
            {
                OFFSET -0.105 0 0
            }
        }
    }
    JOINT RUpperarm
    {
        OFFSET 0 0.075 0.098
        CHANNELS 3 Zrotation Yrotation Xrotation
        JOINT RLowerarm
        {
            OFFSET -0.09 0.009 0
            CHANNELS 3 Zrotation Yrotation Xrotation
            End Site
            {
                OFFSET -0.105 0 0
            }
        }
    }
}
MOTION
Frames: 22
Frame Time: 0.04
0 0 0 0 0 0 0 0.0 0 0 -0.0 0 0.46 0 0 0 0 0 -0.69 0 0 0.23 -0.0 0 0 0.0 0 0 0.0 0 0.46 0 0 0 0 0 -0.69 0 0 0.23 -0.0 0 0 0.0 0 0.0 0 0 0.0 0 0.0 0 -0.0 -0.0 0.0 0 -0.0 0 -0.0 -0.0
0 0 0 0 0 0 0 0.0 0 0 0.0 0 0.92 0 0 0 0 0 -1.38 0 0 0.46 0.0 0 0 0.0 0 0 0.0 0 0.92 0 0 0 0 0 -1.38 0 0 0.46 -0.0 0 0 -0.0 0 0.0 0 0 0.0 0 0.0 0 -0.0 -0.0 0.0 0 -0.0 0 -0.0 -0.0
0 0 0 0 0 0 0 0.0 0 0 0.0 0 1.38 0 0 0 0 0 -2.06 0 0 0.69 0.0 0 0 0.0 0 0 0.0 0 1.38 0 0 0 0 0 -2.06 0 0 0.69 -0.0 0 0 0.0 0 0.0 0 0 0.0 0 0.0 0 -0.0 0.0 0.0 0 -0.0 0 -0.0 -0.0
0 0 0 0 0 0 0 0.0 0 0 0.0 0 1.83 0 0 0 0 0 -2.75 0 0 0.92 0.0 0 0 0.0 0 0 0.0 0 1.83 0 0 0 0 0 -2.75 0 0 0.92 -0.0 0 0 -0.0 0 0.0 0 0 0.0 0 0.0 0 -0.0 -0.0 0.0 0 -0.0 0 -0.0 -0.0
0 0 0 0 0 0 0 0.0 0 0 0.0 0 2.29 0 0 0 0 0 -3.44 0 0 1.15 0.0 0 0 0.0 0 0 0.0 0 2.29 0 0 0 0 0 -3.44 0 0 1.15 -0.0 0 0 0.0 0 0.0 0 0 0.0 0 0.0 0 -0.0 -0.0 0.0 0 -0.0 0 -0.0 -0.0
0 0 0 0 0 0 0 0.0 0 0 0.0 0 2.75 0 0 0 0 0 -4.13 0 0 1.38 0.0 0 0 0.0 0 0 0.0 0 2.75 0 0 0 0 0 -4.13 0 0 1.38 -0.0 0 0 0.0 0 0.0 0 0 0.0 0 0.0 0 -0.0 -0.0 0.0 0 -0.0 0 -0.0 -0.0
0 0 0 0 0 0 0 0.0 0 0 0.0 0 3.21 0 0 0 0 0 -4.81 0 0 1.6 0.0 0 0 0.0 0 0 -0.0 0 3.21 0 0 0 0 0 -4.81 0 0 1.6 -0.0 0 0 0.0 0 0.0 0 0 0.0 0 0.0 0 -0.0 -0.0 0.0 0 -0.0 0 -0.0 -0.0
0 0 0 0 0 0 0 0.0 0 0 0.0 0 3.67 0 0 0 0 0 -5.5 0 0 1.83 0.0 0 0 0.0 0 0 -0.0 0 3.67 0 0 0 0 0 -5.5 0 0 1.83 -0.0 0 0 -0.0 0 0.0 0 0 0.0 0 0.0 0 -0.0 -0.0 0.0 0 -0.0 0 -0.0 0.0
0 0 0 0 0 0 0 0.0 0 0 0.0 0 4.13 0 0 0 0 0 -6.19 0 0 2.06 0.0 0 0 0.0 0 0 -0.0 0 4.13 0 0 0 0 0 -6.19 0 0 2.06 -0.0 0 0 -0.0 0 0.0 0 0 0.0 0 0.0 0 0.0 -0.0 0.0 0 -0.0 0 -0.0 0.0
0 0 0 0 0 0 0 0.0 0 0 0.0 0 4.58 0 0 0 0 0 -6.88 0 0 2.29 0.0 0 0 0.0 0 0 -0.0 0 4.58 0 0 0 0 0 -6.88 0 0 2.29 -0.0 0 0 -0.0 0 0.0 0 0 0.0 0 0.0 0 -0.0 -0.0 0.0 0 -0.0 0 -0.0 0.0
0 0 0 0 0 0 0 0.0 0 0 0.0 0 5.04 0 0 0 0 0 -7.56 0 0 2.52 0.0 0 0 0.0 0 0 -0.0 0 5.04 0 0 0 0 0 -7.56 0 0 2.52 -0.0 0 0 -0.0 0 0.0 0 0 0.0 0 0.0 0 -0.0 -0.0 0.0 0 -0.0 0 -0.0 -0.0
0 0 0 0 0 0 0 -0.0 0 0 0.0 0 8.26 0 0 0 0 0 -8.25 0 0 2.75 0.0 0 0 -0.0 0 0 0.0 0 8.26 0 0 0 0 0 -8.25 0 0 2.75 -0.0 0 0 0.0 0 0.0 0 0 -0.0 0 -0.0 0 -0.0 0.0 -0.0 0 0.0 0 -0.0 -0.0
0 0 0 0 0 0 0 -0.0 0 0 0.0 0 8.72 0 0 0 0 0 -8.94 0 0 2.98 0.0 0 0 -0.0 0 0 0.0 0 8.72 0 0 0 0 0 -8.94 0 0 2.98 -0.0 0 0 0.0 0 0.0 0 0 -0.0 0 -0.0 0 -0.0 0.0 -0.0 0 0.0 0 -0.0 -0.0
0 0 0 0 0 0 0 -0.0 0 0 0.0 0 9.18 0 0 0 0 0 -9.63 0 0 3.21 0.0 0 0 -0.0 0 0 0.0 0 9.18 0 0 0 0 0 -9.63 0 0 3.21 -0.0 0 0 0.0 0 0.0 0 0 -0.0 0 -0.0 0 -0.0 0.0 -0.0 0 0.0 0 -0.0 -0.0
0 0 0 0 0 0 0 -0.0 0 0 0.0 0 9.64 0 0 0 0 0 -10.31 0 0 3.44 0.0 0 0 -0.0 0 0 0.0 0 9.64 0 0 0 0 0 -10.31 0 0 3.44 -0.0 0 0 -0.0 0 0.0 0 0 -0.0 0 -0.0 0 -0.0 0.0 -0.0 0 0.0 0 -0.0 -0.0
0 0 0 0 0 0 0 -0.0 0 0 0.0 0 10.1 0 0 0 0 0 -11.0 0 0 3.67 0.0 0 0 -0.0 0 0 0.0 0 10.1 0 0 0 0 0 -11.0 0 0 3.67 -0.0 0 0 -0.0 0 0.0 0 0 -0.0 0 -0.0 0 -0.0 0.0 -0.0 0 0.0 0 -0.0 -0.0
0 0 0 0 0 0 0 -0.0 0 0 0.0 0 10.56 0 0 0 0 0 -11.69 0 0 3.9 0.0 0 0 -0.0 0 0 0.0 0 10.56 0 0 0 0 0 -11.69 0 0 3.9 -0.0 0 0 -0.0 0 0.0 0 0 -0.0 0 -0.0 0 0.0 0.0 -0.0 0 0.0 0 -0.0 -0.0
0 0 0 0 0 0 0 -0.0 0 0 0.0 0 11.01 0 0 0 0 0 -12.38 0 0 4.13 0.0 0 0 -0.0 0 0 0.0 0 11.01 0 0 0 0 0 -12.38 0 0 4.13 -0.0 0 0 -0.0 0 0.0 0 0 -0.0 0 -0.0 0 0.0 0.0 -0.0 0 0.0 0 -0.0 -0.0
0 0 0 0 0 0 0 -0.0 0 0 0.0 0 11.47 0 0 0 0 0 -13.06 0 0 4.35 0.0 0 0 -0.0 0 0 0.0 0 11.47 0 0 0 0 0 -13.06 0 0 4.35 -0.0 0 0 -0.0 0 -0.0 0 0 -0.0 0 -0.0 0 0.0 0.0 -0.0 0 0.0 0 -0.0 -0.0
0 0 0 0 0 0 0 -0.0 0 0 0.0 0 11.93 0 0 0 0 0 -13.75 0 0 4.58 0.0 0 0 -0.0 0 0 0.0 0 11.93 0 0 0 0 0 -13.75 0 0 4.58 -0.0 0 0 -0.0 0 -0.0 0 0 -0.0 0 -0.0 0 0.0 0.0 -0.0 0 0.0 0 -0.0 -0.0
0 0 0 0 0 0 0 -0.0 0 0 0.0 0 12.39 0 0 0 0 0 -14.44 0 0 4.81 0.0 0 0 -0.0 0 0 0.0 0 12.39 0 0 0 0 0 -14.44 0 0 4.81 -0.0 0 0 0.0 0 -0.0 0 0 -0.0 0 -0.0 0 0.0 0.0 -0.0 0 0.0 0 -0.0 -0.0
0 0 0 0 0 0 0 -0.0 0 0 0.0 0 12.85 0 0 0 0 0 -15.13 0 0 5.04 0.0 0 0 -0.0 0 0 0.0 0 12.85 0 0 0 0 0 -15.13 0 0 5.04 -0.0 0 0 0.0 0 -0.0 0 0 -0.0 0 -0.0 0 0.0 0.0 -0.0 0 0.0 0 -0.0 -0.0
